# xmcd
#
# Track frame offsets: 
#        150
#        21634
#        39653
#        61705
#        85824
#        102513
#        120130
#        142909
#        159837
#        178588
#        200521
#        221886
#        246711
#        292049
#
# Disc length: 4577 seconds
#
# Revision: 1
# Processed by: cddbd v1.5.2PL0 Copyright (c) Steve Scherf et al.
# Submitted via: ExactAudioCopy v0.99pb5
#
DISCID=cc11df0e
DTITLE=Lizz Wright - The Orchard
DYEAR=2008
DGENRE=Jazz
TTITLE0=Coming Home
TTITLE1=My Heart
TTITLE2=Idolize You
TTITLE3=Hey Mann
TTITLE4=Another Angel
TTITLE5=When I Fall
TTITLE6=Leave Me Standing Alone
TTITLE7=Speak Your Heart
TTITLE8=This Is
TTITLE9=Song For Mia
TTITLE10=Thank You
TTITLE11=Strange
TTITLE12=It Makes No Difference
TTITLE13=My Heart (Video Data Track)
EXTD=
EXTT0=
EXTT1=
EXTT2=
EXTT3=
EXTT4=
EXTT5=
EXTT6=
EXTT7=
EXTT8=
EXTT9=
EXTT10=
EXTT11=
EXTT12=
EXTT13=
PLAYORDER=
